<svg width="114" height="43" viewBox="0 0 114 43" fill="none" xmlns="http://www.w3.org/2000/svg">
<path fill-rule="evenodd" clip-rule="evenodd" d="M22.2806 0C34.273 0 43.9948 9.62587 43.9948 21.5C43.9948 33.3741 34.273 43 22.2806 43C10.2881 43 0.566284 33.3741 0.566284 21.5C0.566284 9.62587 10.2881 0 22.2806 0ZM21.4957 1.60883C19.0185 1.95402 16.6597 3.92491 14.8287 7.22121C14.2975 8.17734 13.8183 9.23367 13.4006 10.3742C15.8904 9.75473 18.6254 9.3895 21.4957 9.33301V1.60883ZM11.5654 10.8906C12.0847 9.2768 12.7201 7.79203 13.4533 6.4722C14.3609 4.83813 15.4382 3.42705 16.6519 2.34325C10.0519 4.24112 4.84967 9.39205 2.9329 15.9269C4.02748 14.7251 5.45264 13.6585 7.10299 12.7598C8.43598 12.0339 9.93553 11.4048 11.5654 10.8906ZM11.0439 12.7077C10.4182 15.1729 10.0494 17.8809 9.99232 20.7229H2.19115C2.53978 18.2701 4.53032 15.9345 7.85947 14.1216C8.82513 13.5957 9.89199 13.1212 11.0439 12.7077ZM11.5624 20.7229C11.6272 17.6214 12.0781 14.7097 12.8242 12.137C15.4225 11.3982 18.3634 10.9517 21.4957 10.8875V14.2446C20.3271 17.2067 17.9438 19.5663 14.9521 20.7229H11.5624ZM9.99232 22.2771H2.19115C2.53978 24.7299 4.53032 27.0654 7.85947 28.8784C8.82513 29.4043 9.89199 29.8788 11.0439 30.2923C10.4182 27.8271 10.0494 25.1191 9.99232 22.2771ZM12.8242 30.863C12.0781 28.2903 11.6272 25.3786 11.5624 22.2771H14.9521C17.9438 23.4337 20.3273 25.7933 21.4957 28.7554V32.1125C18.3634 32.0483 15.4225 31.6018 12.8242 30.863ZM11.5654 32.1094C9.93553 31.5952 8.43598 30.9661 7.10299 30.2402C5.45264 29.3415 4.02748 28.2749 2.9329 27.0731C4.84967 33.6079 10.0519 38.7589 16.6519 40.6567C15.4382 39.5729 14.3609 38.1619 13.4533 36.5278C12.7201 35.208 12.0847 33.7232 11.5654 32.1094ZM21.4957 41.3912C19.0185 41.046 16.6597 39.0751 14.8287 35.7788C14.2975 34.8227 13.8183 33.7663 13.4006 32.6258C15.8904 33.2452 18.6254 33.6105 21.4957 33.667V41.3912ZM27.9092 40.6567C29.1229 39.5729 30.2002 38.1619 31.108 36.5278C31.841 35.208 32.4764 33.7232 32.9957 32.1094C34.6256 31.5952 36.1252 30.9661 37.4582 30.2402C39.1085 29.3415 40.5337 28.2749 41.6282 27.0731C39.7115 33.6079 34.5092 38.7589 27.9092 40.6567ZM31.1605 32.6258C30.7428 33.7663 30.2636 34.8227 29.7325 35.7788C27.9015 39.0751 25.5427 41.046 23.0654 41.3912V33.667C25.9357 33.6105 28.6708 33.2452 31.1605 32.6258ZM33.5173 30.2923C34.6691 29.8788 35.736 29.4043 36.7017 28.8784C40.0308 27.0654 42.0213 24.7299 42.37 22.2771H34.5688C34.5118 25.1191 34.1429 27.8271 33.5173 30.2923ZM32.9988 22.2771C32.934 25.3786 32.483 28.2903 31.7369 30.863C29.1386 31.6018 26.1978 32.0483 23.0654 32.1125V28.7579C24.2335 25.7947 26.6174 23.434 29.61 22.2771H32.9988ZM34.5688 20.7229H42.37C42.0213 18.2701 40.0308 15.9345 36.7017 14.1216C35.736 13.5957 34.6691 13.1212 33.5173 12.7077C34.1429 15.1729 34.5118 17.8809 34.5688 20.7229ZM31.7369 12.137C32.483 14.7097 32.934 17.6214 32.9988 20.7229H29.61C26.6174 19.566 24.2335 17.2053 23.0654 14.2421V10.8875C26.1978 10.9517 29.1386 11.3982 31.7369 12.137ZM32.9957 10.8906C34.6256 11.4048 36.1252 12.0339 37.4582 12.7598C39.1085 13.6585 40.5337 14.7251 41.6282 15.9269C39.7115 9.39205 34.5092 4.24112 27.9092 2.34325C29.1229 3.42705 30.2002 4.83813 31.108 6.4722C31.841 7.79203 32.4764 9.2768 32.9957 10.8906ZM23.0654 1.60883C25.5427 1.95402 27.9015 3.92491 29.7325 7.22121C30.2636 8.17735 30.7428 9.23367 31.1605 10.3742C28.6708 9.75473 25.9357 9.3895 23.0654 9.33301V1.60883Z" fill="white"/>
<path d="M54.42 19V7H50.52V4.4H61.06V7H57.14V19H54.42ZM62.362 19V4.2H65.062V8.7C65.862 7.68 67.062 7.06 68.562 7.06C71.502 7.06 73.202 8.88 73.202 12.06V19H70.442V12.36C70.442 10.52 69.562 9.4 67.802 9.4C66.282 9.4 65.082 10.54 65.082 12.58V19H62.362ZM80.5448 19.24C76.8648 19.24 74.3648 16.56 74.3648 13.18C74.3648 9.76 77.0248 7.06 80.4448 7.06C83.9248 7.06 86.4648 9.62 86.4648 13.08V14.1H76.9448C77.3248 15.76 78.6248 16.86 80.5448 16.86C82.0648 16.86 83.2248 16.06 83.7848 14.8L86.0048 16.08C84.9848 17.98 83.1848 19.24 80.5448 19.24ZM80.4448 9.44C78.8248 9.44 77.5648 10.4 77.0848 11.84H83.7248C83.3248 10.26 82.1248 9.44 80.4448 9.44ZM55.2 37L50.3 22.4H53.12L56.58 32.84L60.02 22.4H62.84L57.94 37H55.2ZM63.9245 37V25.3H66.6445V37H63.9245ZM63.5845 22.44C63.5845 21.42 64.2445 20.74 65.2845 20.74C66.3445 20.74 66.9845 21.42 66.9845 22.44C66.9845 23.46 66.3445 24.12 65.2845 24.12C64.1845 24.12 63.5845 23.46 63.5845 22.44ZM72.6019 37.24C69.9819 37.24 68.3419 36.24 67.4019 34.4L69.9019 33.2C70.4619 34.3 71.4419 34.9 72.7219 34.9C74.0619 34.9 74.7219 34.26 74.7219 33.48C74.7219 32.62 73.4219 32.46 71.9819 32.14C69.9819 31.72 67.8819 31.08 67.8819 28.62C67.8819 26.74 69.7019 25.04 72.4819 25.04C74.8619 25.04 76.3619 25.96 77.2619 27.46L74.9619 28.62C74.4819 27.8 73.6019 27.28 72.4819 27.28C71.2019 27.28 70.6019 27.88 70.6019 28.54C70.6019 29.32 71.5219 29.52 73.2819 29.9C75.2019 30.28 77.4019 30.96 77.4019 33.42C77.4019 35.06 75.9419 37.24 72.6019 37.24ZM78.5534 37V25.3H81.2734V37H78.5534ZM78.2134 22.44C78.2134 21.42 78.8734 20.74 79.9134 20.74C80.9734 20.74 81.6134 21.42 81.6134 22.44C81.6134 23.46 80.9734 24.12 79.9134 24.12C78.8134 24.12 78.2134 23.46 78.2134 22.44ZM88.5108 37.24C85.1308 37.24 82.4508 34.52 82.4508 31.16C82.4508 27.74 85.1308 25.06 88.5108 25.06C91.8708 25.06 94.5708 27.74 94.5708 31.16C94.5708 34.52 91.8708 37.24 88.5108 37.24ZM88.5108 34.7C90.4308 34.7 91.9108 33.1 91.9108 31.16C91.9108 29.18 90.4308 27.6 88.5108 27.6C86.5708 27.6 85.1108 29.18 85.1108 31.16C85.1108 33.1 86.5708 34.7 88.5108 34.7ZM95.7605 37V25.3H98.4405V26.74C99.2205 25.72 100.42 25.06 101.94 25.06C104.88 25.06 106.58 26.88 106.58 30.06V37H103.84V30.34C103.84 28.52 102.96 27.4 101.2 27.4C99.6605 27.4 98.4605 28.52 98.4605 30.58V37H95.7605Z" fill="white"/>
</svg>
