<svg width="40" height="41" viewBox="0 0 40 41" fill="none" xmlns="http://www.w3.org/2000/svg">
<path id="Facebook logo" d="M40 28.4059C40 35.6824 35.66 40.0204 28.38 40.0204H26C24.9 40.0204 24 39.1208 24 38.0213V26.4868C24 25.947 24.44 25.4873 24.98 25.4873L28.5 25.4273C28.78 25.4073 29.02 25.2074 29.08 24.9275L29.78 21.1093C29.84 20.7495 29.56 20.4097 29.18 20.4097L24.92 20.4696C24.36 20.4696 23.92 20.0298 23.9 19.4901L23.82 14.5924C23.82 14.2726 24.08 13.9927 24.42 13.9927L29.22 13.9127C29.56 13.9127 29.82 13.6529 29.82 13.313L29.74 8.51527C29.74 8.17544 29.48 7.91558 29.14 7.91558L23.74 7.99556C20.42 8.05553 17.78 10.7742 17.84 14.0927L17.94 19.5901C17.96 20.1498 17.52 20.5896 16.96 20.6096L14.56 20.6496C14.22 20.6496 13.96 20.9094 13.96 21.2493L14.02 25.0475C14.02 25.3873 14.28 25.6472 14.62 25.6472L17.02 25.6072C17.58 25.6072 18.02 26.047 18.04 26.5867L18.22 37.9813C18.24 39.1008 17.34 40.0204 16.22 40.0204H11.62C4.34 40.0204 0 35.6824 0 28.3859V11.6538C0 4.37725 4.34 0.0393066 11.62 0.0393066H28.38C35.66 0.0393066 40 4.37725 40 11.6538V28.4059Z" fill="white"/>
</svg>
