<svg width="41" height="42" viewBox="0 0 41 42" fill="none" xmlns="http://www.w3.org/2000/svg">
<path id="Instagram logo" d="M29.104 0.0393066H11.9164C4.45072 0.0393066 0 4.4857 0 11.9442V29.0945C0 36.5735 4.45072 41.0199 11.9164 41.0199H29.0835C36.5492 41.0199 40.9999 36.5735 40.9999 29.115V11.9442C41.0204 4.4857 36.5697 0.0393066 29.104 0.0393066ZM20.5102 28.4798C16.121 28.4798 12.5523 24.9145 12.5523 20.5296C12.5523 16.1447 16.121 12.5794 20.5102 12.5794C24.8994 12.5794 28.4682 16.1447 28.4682 20.5296C28.4682 24.9145 24.8994 28.4798 20.5102 28.4798ZM32.6523 10.0386C32.5497 10.2845 32.4061 10.5098 32.2216 10.7148C32.0164 10.8992 31.7908 11.0426 31.5447 11.145C31.2986 11.2475 31.032 11.309 30.7653 11.309C30.2116 11.309 29.6988 11.1041 29.3091 10.7148C29.1245 10.5098 28.9809 10.2845 28.8784 10.0386C28.7758 9.79269 28.7143 9.52631 28.7143 9.25994C28.7143 8.99357 28.7758 8.72719 28.8784 8.48131C28.9809 8.21494 29.1245 8.01003 29.3091 7.80513C29.7808 7.33385 30.4987 7.10846 31.155 7.25189C31.2986 7.27238 31.4217 7.31336 31.5447 7.37483C31.6678 7.41581 31.7908 7.47729 31.9139 7.55925C32.0165 7.62072 32.119 7.72317 32.2216 7.80513C32.4061 8.01003 32.5497 8.21494 32.6523 8.48131C32.7548 8.72719 32.8164 8.99357 32.8164 9.25994C32.8164 9.52631 32.7548 9.79269 32.6523 10.0386Z" fill="white"/>
</svg>
